<svg xmlns="http://www.w3.org/2000/svg" xmlns:xlink="http://www.w3.org/1999/xlink" width="300" zoomAndPan="magnify" viewBox="0 0 224.87999 112.499997" height="150" preserveAspectRatio="xMidYMid meet" version="1.0"><defs><g/></defs><g fill="#ffffff" fill-opacity="1"><g transform="translate(31.935954, 58.730518)"><g><path d="M 10.734375 -6.5625 C 10.734375 -5.519531 10.789062 -4.664062 10.90625 -4 C 11.019531 -3.34375 11.238281 -2.832031 11.5625 -2.46875 C 11.894531 -2.113281 12.347656 -1.875 12.921875 -1.75 C 13.503906 -1.625 14.28125 -1.5625 15.25 -1.5625 L 15.25 0 L 1.859375 0 L 1.859375 -1.5625 C 2.828125 -1.5625 3.601562 -1.625 4.1875 -1.75 C 4.78125 -1.875 5.242188 -2.109375 5.578125 -2.453125 C 5.910156 -2.796875 6.128906 -3.273438 6.234375 -3.890625 C 6.347656 -4.515625 6.40625 -5.3125 6.40625 -6.28125 L 6.40625 -25.53125 C 6.40625 -26.570312 6.34375 -27.398438 6.21875 -28.015625 C 6.09375 -28.640625 5.867188 -29.117188 5.546875 -29.453125 C 5.234375 -29.785156 4.816406 -30 4.296875 -30.09375 C 3.773438 -30.1875 3.097656 -30.234375 2.265625 -30.234375 L 2.265625 -31.8125 L 14.828125 -31.8125 L 14.828125 -30.234375 C 14.003906 -30.234375 13.328125 -30.175781 12.796875 -30.0625 C 12.273438 -29.957031 11.859375 -29.726562 11.546875 -29.375 C 11.234375 -29.019531 11.019531 -28.515625 10.90625 -27.859375 C 10.789062 -27.210938 10.734375 -26.335938 10.734375 -25.234375 L 10.734375 -15.03125 L 21.0625 -27.46875 C 21.613281 -28.15625 21.890625 -28.691406 21.890625 -29.078125 C 21.890625 -29.847656 21.109375 -30.234375 19.546875 -30.234375 L 19.546875 -31.8125 L 29.5 -31.8125 L 29.5 -30.28125 C 28.945312 -30.28125 28.460938 -30.242188 28.046875 -30.171875 C 27.640625 -30.109375 27.234375 -29.96875 26.828125 -29.75 C 26.429688 -29.53125 26.007812 -29.210938 25.5625 -28.796875 C 25.125 -28.378906 24.617188 -27.84375 24.046875 -27.1875 L 16.28125 -18.21875 L 28.34375 -3.71875 C 29.03125 -2.914062 29.675781 -2.351562 30.28125 -2.03125 C 30.882812 -1.71875 31.695312 -1.5625 32.71875 -1.5625 L 32.71875 0 L 20.03125 0 L 20.03125 -1.5625 C 21.101562 -1.5625 21.875 -1.648438 22.34375 -1.828125 C 22.8125 -2.015625 23.046875 -2.300781 23.046875 -2.6875 C 23.046875 -2.90625 22.9375 -3.21875 22.71875 -3.625 C 22.5 -4.039062 22.140625 -4.550781 21.640625 -5.15625 L 13.59375 -15.078125 L 10.734375 -11.78125 Z M 10.734375 -6.5625 "/></g></g></g><g fill="#ffffff" fill-opacity="1"><g transform="translate(62.043605, 58.730518)"><g><path d="M 2.390625 -9.703125 L 3.921875 -9.703125 C 4.117188 -8.460938 4.484375 -7.347656 5.015625 -6.359375 C 5.554688 -5.367188 6.234375 -4.53125 7.046875 -3.84375 C 7.859375 -3.15625 8.789062 -2.625 9.84375 -2.25 C 10.90625 -1.875 12.054688 -1.6875 13.296875 -1.6875 C 15.335938 -1.6875 16.945312 -2.164062 18.125 -3.125 C 19.3125 -4.09375 19.90625 -5.40625 19.90625 -7.0625 C 19.90625 -7.75 19.785156 -8.378906 19.546875 -8.953125 C 19.316406 -9.535156 18.925781 -10.09375 18.375 -10.625 C 17.832031 -11.164062 17.097656 -11.695312 16.171875 -12.21875 C 15.253906 -12.75 14.09375 -13.316406 12.6875 -13.921875 C 10.976562 -14.660156 9.546875 -15.375 8.390625 -16.0625 C 7.234375 -16.757812 6.304688 -17.476562 5.609375 -18.21875 C 4.921875 -18.957031 4.429688 -19.75 4.140625 -20.59375 C 3.859375 -21.4375 3.71875 -22.394531 3.71875 -23.46875 C 3.71875 -24.726562 3.941406 -25.894531 4.390625 -26.96875 C 4.847656 -28.050781 5.488281 -28.984375 6.3125 -29.765625 C 7.144531 -30.546875 8.125 -31.148438 9.25 -31.578125 C 10.382812 -32.003906 11.625 -32.21875 12.96875 -32.21875 C 14.1875 -32.21875 15.316406 -32.023438 16.359375 -31.640625 C 17.398438 -31.253906 18.460938 -30.632812 19.546875 -29.78125 L 20.609375 -31.640625 L 21.5625 -31.640625 L 22.015625 -23.421875 L 20.484375 -23.421875 C 19.828125 -25.679688 18.867188 -27.359375 17.609375 -28.453125 C 16.359375 -29.554688 14.851562 -30.109375 13.09375 -30.109375 C 11.414062 -30.109375 10.078125 -29.695312 9.078125 -28.875 C 8.085938 -28.050781 7.59375 -26.9375 7.59375 -25.53125 C 7.59375 -24.875 7.703125 -24.273438 7.921875 -23.734375 C 8.148438 -23.191406 8.507812 -22.679688 9 -22.203125 C 9.5 -21.722656 10.144531 -21.238281 10.9375 -20.75 C 11.738281 -20.269531 12.734375 -19.769531 13.921875 -19.25 C 15.960938 -18.34375 17.65625 -17.492188 19 -16.703125 C 20.351562 -15.921875 21.425781 -15.132812 22.21875 -14.34375 C 23.019531 -13.5625 23.585938 -12.738281 23.921875 -11.875 C 24.253906 -11.007812 24.421875 -10.039062 24.421875 -8.96875 C 24.421875 -7.59375 24.144531 -6.320312 23.59375 -5.15625 C 23.039062 -4 22.265625 -3.007812 21.265625 -2.1875 C 20.273438 -1.363281 19.09375 -0.722656 17.71875 -0.265625 C 16.34375 0.179688 14.828125 0.40625 13.171875 0.40625 C 11.609375 0.40625 10.195312 0.1875 8.9375 -0.25 C 7.6875 -0.6875 6.414062 -1.429688 5.125 -2.484375 L 3.96875 -0.453125 L 3.015625 -0.453125 Z M 2.390625 -9.703125 "/></g></g></g><g fill="#ffffff" fill-opacity="1"><g transform="translate(86.616966, 58.730518)"><g/></g></g><g fill="#ffffff" fill-opacity="1"><g transform="translate(96.404665, 58.730518)"><g><path d="M 28.546875 0 L 1.859375 0 L 1.859375 -1.5625 C 2.828125 -1.59375 3.601562 -1.675781 4.1875 -1.8125 C 4.78125 -1.957031 5.242188 -2.191406 5.578125 -2.515625 C 5.910156 -2.847656 6.128906 -3.316406 6.234375 -3.921875 C 6.347656 -4.523438 6.40625 -5.3125 6.40625 -6.28125 L 6.40625 -25.53125 C 6.40625 -26.5 6.351562 -27.273438 6.25 -27.859375 C 6.15625 -28.453125 5.960938 -28.921875 5.671875 -29.265625 C 5.390625 -29.609375 4.972656 -29.84375 4.421875 -29.96875 C 3.867188 -30.09375 3.148438 -30.179688 2.265625 -30.234375 L 2.265625 -31.8125 L 14.828125 -31.8125 L 14.828125 -30.234375 C 13.953125 -30.210938 13.242188 -30.128906 12.703125 -29.984375 C 12.160156 -29.847656 11.742188 -29.601562 11.453125 -29.25 C 11.171875 -28.894531 10.976562 -28.398438 10.875 -27.765625 C 10.78125 -27.128906 10.734375 -26.285156 10.734375 -25.234375 L 10.734375 -7.4375 C 10.734375 -6.28125 10.847656 -5.335938 11.078125 -4.609375 C 11.316406 -3.878906 11.71875 -3.3125 12.28125 -2.90625 C 12.851562 -2.507812 13.609375 -2.234375 14.546875 -2.078125 C 15.484375 -1.929688 16.664062 -1.859375 18.09375 -1.859375 C 19.664062 -1.859375 20.988281 -1.945312 22.0625 -2.125 C 23.132812 -2.300781 24.035156 -2.617188 24.765625 -3.078125 C 25.492188 -3.535156 26.070312 -4.171875 26.5 -4.984375 C 26.925781 -5.796875 27.289062 -6.847656 27.59375 -8.140625 L 29.171875 -8.140625 Z M 28.546875 0 "/></g></g></g><g fill="#ffffff" fill-opacity="1"><g transform="translate(124.364684, 58.730518)"><g><path d="M 14.421875 -12.234375 C 12.847656 -11.617188 11.515625 -11.019531 10.421875 -10.4375 C 9.335938 -9.863281 8.460938 -9.285156 7.796875 -8.703125 C 7.140625 -8.128906 6.664062 -7.550781 6.375 -6.96875 C 6.09375 -6.394531 5.953125 -5.804688 5.953125 -5.203125 C 5.953125 -4.296875 6.253906 -3.550781 6.859375 -2.96875 C 7.460938 -2.394531 8.257812 -2.109375 9.25 -2.109375 C 9.96875 -2.109375 10.632812 -2.285156 11.25 -2.640625 C 11.875 -3.003906 12.421875 -3.492188 12.890625 -4.109375 C 13.359375 -4.734375 13.726562 -5.460938 14 -6.296875 C 14.28125 -7.140625 14.421875 -8.03125 14.421875 -8.96875 Z M 14.421875 -14 L 14.421875 -15.703125 C 14.421875 -19.054688 12.988281 -20.734375 10.125 -20.734375 C 9.65625 -20.734375 9.253906 -20.691406 8.921875 -20.609375 C 8.585938 -20.523438 8.3125 -20.382812 8.09375 -20.1875 C 7.875 -20 7.675781 -19.726562 7.5 -19.375 C 7.320312 -19.019531 7.148438 -18.578125 6.984375 -18.046875 C 6.679688 -17.253906 6.382812 -16.726562 6.09375 -16.46875 C 5.800781 -16.207031 5.378906 -16.078125 4.828125 -16.078125 C 3.453125 -16.078125 2.765625 -16.765625 2.765625 -18.140625 C 2.765625 -19.460938 3.46875 -20.488281 4.875 -21.21875 C 6.28125 -21.945312 8.273438 -22.3125 10.859375 -22.3125 C 13.617188 -22.3125 15.578125 -21.820312 16.734375 -20.84375 C 17.890625 -19.863281 18.46875 -18.203125 18.46875 -15.859375 L 18.46875 -6.609375 C 18.46875 -3.472656 19.085938 -1.90625 20.328125 -1.90625 C 20.710938 -1.90625 21.082031 -1.953125 21.4375 -2.046875 C 21.800781 -2.140625 22.101562 -2.394531 22.34375 -2.8125 L 22.921875 -1.8125 C 22.597656 -1.1875 21.992188 -0.660156 21.109375 -0.234375 C 20.222656 0.191406 19.300781 0.40625 18.34375 0.40625 C 17.132812 0.40625 16.234375 0.0195312 15.640625 -0.75 C 15.046875 -1.519531 14.75 -2.601562 14.75 -4 L 14.546875 -4 C 13.828125 -2.65625 12.832031 -1.585938 11.5625 -0.796875 C 10.300781 -0.015625 8.898438 0.375 7.359375 0.375 C 5.617188 0.375 4.253906 -0.0625 3.265625 -0.9375 C 2.273438 -1.820312 1.78125 -3.007812 1.78125 -4.5 C 1.78125 -5.164062 1.894531 -5.800781 2.125 -6.40625 C 2.363281 -7.007812 2.742188 -7.585938 3.265625 -8.140625 C 3.785156 -8.691406 4.472656 -9.234375 5.328125 -9.765625 C 6.179688 -10.304688 7.226562 -10.851562 8.46875 -11.40625 Z M 14.421875 -14 "/></g></g></g><g fill="#ffffff" fill-opacity="1"><g transform="translate(145.17968, 58.730518)"><g><path d="M 11.484375 0.40625 L 9.953125 0.40625 L 4.578125 -16.765625 C 4.335938 -17.535156 4.101562 -18.15625 3.875 -18.625 C 3.65625 -19.09375 3.394531 -19.460938 3.09375 -19.734375 C 2.789062 -20.015625 2.429688 -20.203125 2.015625 -20.296875 C 1.609375 -20.398438 1.101562 -20.453125 0.5 -20.453125 L 0.5 -21.890625 L 11.4375 -21.890625 L 11.4375 -20.453125 C 10.363281 -20.453125 9.609375 -20.328125 9.171875 -20.078125 C 8.734375 -19.828125 8.515625 -19.398438 8.515625 -18.796875 C 8.515625 -18.523438 8.554688 -18.203125 8.640625 -17.828125 C 8.722656 -17.453125 8.832031 -16.988281 8.96875 -16.4375 L 11.78125 -6.5625 L 11.9375 -6.5625 L 18.015625 -21.890625 L 19.296875 -21.890625 L 24.78125 -6.5625 L 24.953125 -6.5625 L 27.4375 -13.265625 C 27.757812 -14.171875 28.03125 -14.929688 28.25 -15.546875 C 28.476562 -16.171875 28.648438 -16.695312 28.765625 -17.125 C 28.890625 -17.550781 28.976562 -17.898438 29.03125 -18.171875 C 29.09375 -18.453125 29.125 -18.71875 29.125 -18.96875 C 29.125 -19.570312 28.941406 -19.96875 28.578125 -20.15625 C 28.222656 -20.351562 27.484375 -20.453125 26.359375 -20.453125 L 26.359375 -21.890625 L 34.625 -21.890625 L 34.625 -20.453125 C 34.207031 -20.453125 33.851562 -20.390625 33.5625 -20.265625 C 33.269531 -20.140625 32.976562 -19.894531 32.6875 -19.53125 C 32.40625 -19.175781 32.113281 -18.664062 31.8125 -18 C 31.507812 -17.34375 31.132812 -16.476562 30.6875 -15.40625 L 24.296875 0.40625 L 22.765625 0.40625 L 17.71875 -14.828125 L 17.5625 -14.828125 Z M 11.484375 0.40625 "/></g></g></g><g fill="#ffffff" fill-opacity="1"><g transform="translate(178.308839, 58.730518)"><g/></g></g><g fill="#ffffff" fill-opacity="1"><g transform="translate(75.70929, 88.312354)"><g><path d="M 6.40625 0.1875 C 5.570312 0.1875 4.820312 0.046875 4.15625 -0.234375 C 3.5 -0.523438 2.9375 -0.914062 2.46875 -1.40625 C 2 -1.894531 1.640625 -2.46875 1.390625 -3.125 C 1.148438 -3.789062 1.03125 -4.503906 1.03125 -5.265625 L 1.03125 -5.296875 C 1.03125 -6.015625 1.15625 -6.703125 1.40625 -7.359375 C 1.664062 -8.023438 2.023438 -8.609375 2.484375 -9.109375 C 2.953125 -9.617188 3.507812 -10.019531 4.15625 -10.3125 C 4.8125 -10.613281 5.539062 -10.765625 6.34375 -10.765625 C 6.78125 -10.765625 7.179688 -10.734375 7.546875 -10.671875 C 7.921875 -10.617188 8.265625 -10.53125 8.578125 -10.40625 C 8.898438 -10.28125 9.195312 -10.128906 9.46875 -9.953125 C 9.75 -9.773438 10.019531 -9.578125 10.28125 -9.359375 L 9.515625 -8.453125 C 9.316406 -8.640625 9.101562 -8.804688 8.875 -8.953125 C 8.65625 -9.097656 8.414062 -9.222656 8.15625 -9.328125 C 7.90625 -9.429688 7.625 -9.515625 7.3125 -9.578125 C 7.007812 -9.640625 6.671875 -9.671875 6.296875 -9.671875 C 5.710938 -9.671875 5.171875 -9.550781 4.671875 -9.3125 C 4.179688 -9.082031 3.757812 -8.769531 3.40625 -8.375 C 3.050781 -7.988281 2.769531 -7.53125 2.5625 -7 C 2.363281 -6.46875 2.265625 -5.910156 2.265625 -5.328125 L 2.265625 -5.296875 C 2.265625 -4.660156 2.363281 -4.070312 2.5625 -3.53125 C 2.757812 -3 3.039062 -2.535156 3.40625 -2.140625 C 3.769531 -1.753906 4.207031 -1.445312 4.71875 -1.21875 C 5.226562 -1 5.804688 -0.890625 6.453125 -0.890625 C 7.054688 -0.890625 7.625 -0.992188 8.15625 -1.203125 C 8.695312 -1.410156 9.148438 -1.660156 9.515625 -1.953125 L 9.515625 -4.578125 L 6.296875 -4.578125 L 6.296875 -5.65625 L 10.65625 -5.65625 L 10.65625 -1.4375 C 10.164062 -0.988281 9.5625 -0.601562 8.84375 -0.28125 C 8.125 0.03125 7.3125 0.1875 6.40625 0.1875 Z M 6.40625 0.1875 "/></g></g></g><g fill="#ffffff" fill-opacity="1"><g transform="translate(88.319707, 88.312354)"><g><path d="M 1.5 -10.59375 L 6.046875 -10.59375 C 6.703125 -10.59375 7.285156 -10.5 7.796875 -10.3125 C 8.304688 -10.125 8.726562 -9.863281 9.0625 -9.53125 C 9.320312 -9.269531 9.519531 -8.960938 9.65625 -8.609375 C 9.800781 -8.253906 9.875 -7.863281 9.875 -7.4375 L 9.875 -7.40625 C 9.875 -6.96875 9.800781 -6.570312 9.65625 -6.21875 C 9.519531 -5.875 9.320312 -5.570312 9.0625 -5.3125 C 8.8125 -5.0625 8.507812 -4.851562 8.15625 -4.6875 C 7.800781 -4.519531 7.414062 -4.398438 7 -4.328125 L 10.25 0 L 8.78125 0 L 5.71875 -4.109375 L 2.6875 -4.109375 L 2.6875 0 L 1.5 0 Z M 5.9375 -5.1875 C 6.332031 -5.1875 6.695312 -5.234375 7.03125 -5.328125 C 7.363281 -5.429688 7.648438 -5.578125 7.890625 -5.765625 C 8.140625 -5.953125 8.332031 -6.179688 8.46875 -6.453125 C 8.601562 -6.722656 8.671875 -7.023438 8.671875 -7.359375 L 8.671875 -7.390625 C 8.671875 -8.046875 8.429688 -8.554688 7.953125 -8.921875 C 7.484375 -9.296875 6.816406 -9.484375 5.953125 -9.484375 L 2.6875 -9.484375 L 2.6875 -5.1875 Z M 5.9375 -5.1875 "/></g></g></g><g fill="#ffffff" fill-opacity="1"><g transform="translate(100.007778, 88.312354)"><g><path d="M 6.40625 0.1875 C 5.601562 0.1875 4.867188 0.0390625 4.203125 -0.25 C 3.546875 -0.550781 2.976562 -0.945312 2.5 -1.4375 C 2.03125 -1.9375 1.664062 -2.515625 1.40625 -3.171875 C 1.15625 -3.835938 1.03125 -4.535156 1.03125 -5.265625 L 1.03125 -5.296875 C 1.03125 -6.015625 1.160156 -6.707031 1.421875 -7.375 C 1.679688 -8.039062 2.046875 -8.625 2.515625 -9.125 C 2.992188 -9.625 3.566406 -10.019531 4.234375 -10.3125 C 4.898438 -10.613281 5.632812 -10.765625 6.4375 -10.765625 C 7.25 -10.765625 7.984375 -10.617188 8.640625 -10.328125 C 9.304688 -10.035156 9.875 -9.640625 10.34375 -9.140625 C 10.820312 -8.640625 11.1875 -8.054688 11.4375 -7.390625 C 11.695312 -6.734375 11.828125 -6.046875 11.828125 -5.328125 L 11.828125 -5.296875 C 11.828125 -4.566406 11.695312 -3.867188 11.4375 -3.203125 C 11.175781 -2.535156 10.804688 -1.953125 10.328125 -1.453125 C 9.859375 -0.953125 9.289062 -0.550781 8.625 -0.25 C 7.957031 0.0390625 7.21875 0.1875 6.40625 0.1875 Z M 6.4375 -0.921875 C 7.039062 -0.921875 7.597656 -1.035156 8.109375 -1.265625 C 8.617188 -1.492188 9.054688 -1.800781 9.421875 -2.1875 C 9.785156 -2.582031 10.070312 -3.039062 10.28125 -3.5625 C 10.488281 -4.09375 10.59375 -4.660156 10.59375 -5.265625 L 10.59375 -5.296875 C 10.59375 -5.898438 10.488281 -6.46875 10.28125 -7 C 10.070312 -7.53125 9.78125 -7.988281 9.40625 -8.375 C 9.03125 -8.769531 8.585938 -9.082031 8.078125 -9.3125 C 7.578125 -9.550781 7.019531 -9.671875 6.40625 -9.671875 C 5.800781 -9.671875 5.242188 -9.554688 4.734375 -9.328125 C 4.234375 -9.097656 3.800781 -8.785156 3.4375 -8.390625 C 3.070312 -7.992188 2.785156 -7.535156 2.578125 -7.015625 C 2.367188 -6.492188 2.265625 -5.929688 2.265625 -5.328125 L 2.265625 -5.296875 C 2.265625 -4.691406 2.367188 -4.125 2.578125 -3.59375 C 2.785156 -3.0625 3.078125 -2.597656 3.453125 -2.203125 C 3.828125 -1.816406 4.265625 -1.503906 4.765625 -1.265625 C 5.273438 -1.035156 5.832031 -0.921875 6.4375 -0.921875 Z M 6.4375 -0.921875 "/></g></g></g><g fill="#ffffff" fill-opacity="1"><g transform="translate(113.616136, 88.312354)"><g><path d="M 5.734375 0.171875 C 5.078125 0.171875 4.476562 0.0703125 3.9375 -0.125 C 3.394531 -0.320312 2.929688 -0.613281 2.546875 -1 C 2.160156 -1.394531 1.859375 -1.878906 1.640625 -2.453125 C 1.429688 -3.023438 1.328125 -3.6875 1.328125 -4.4375 L 1.328125 -10.59375 L 2.53125 -10.59375 L 2.53125 -4.5 C 2.53125 -3.351562 2.8125 -2.472656 3.375 -1.859375 C 3.945312 -1.242188 4.742188 -0.9375 5.765625 -0.9375 C 6.742188 -0.9375 7.519531 -1.226562 8.09375 -1.8125 C 8.664062 -2.394531 8.953125 -3.269531 8.953125 -4.4375 L 8.953125 -10.59375 L 10.15625 -10.59375 L 10.15625 -4.515625 C 10.15625 -3.742188 10.046875 -3.066406 9.828125 -2.484375 C 9.617188 -1.898438 9.316406 -1.410156 8.921875 -1.015625 C 8.535156 -0.617188 8.070312 -0.320312 7.53125 -0.125 C 7 0.0703125 6.398438 0.171875 5.734375 0.171875 Z M 5.734375 0.171875 "/></g></g></g><g fill="#ffffff" fill-opacity="1"><g transform="translate(125.84854, 88.312354)"><g><path d="M 1.5 -10.59375 L 5.453125 -10.59375 C 6.054688 -10.59375 6.597656 -10.515625 7.078125 -10.359375 C 7.566406 -10.203125 7.984375 -9.976562 8.328125 -9.6875 C 8.679688 -9.394531 8.953125 -9.039062 9.140625 -8.625 C 9.328125 -8.21875 9.421875 -7.753906 9.421875 -7.234375 L 9.421875 -7.203125 C 9.421875 -6.628906 9.304688 -6.125 9.078125 -5.6875 C 8.859375 -5.257812 8.5625 -4.898438 8.1875 -4.609375 C 7.8125 -4.316406 7.367188 -4.097656 6.859375 -3.953125 C 6.359375 -3.804688 5.828125 -3.734375 5.265625 -3.734375 L 2.6875 -3.734375 L 2.6875 0 L 1.5 0 Z M 5.3125 -4.828125 C 5.738281 -4.828125 6.128906 -4.878906 6.484375 -4.984375 C 6.847656 -5.097656 7.15625 -5.257812 7.40625 -5.46875 C 7.664062 -5.675781 7.863281 -5.921875 8 -6.203125 C 8.144531 -6.484375 8.21875 -6.800781 8.21875 -7.15625 L 8.21875 -7.1875 C 8.21875 -7.9375 7.957031 -8.503906 7.4375 -8.890625 C 6.914062 -9.285156 6.226562 -9.484375 5.375 -9.484375 L 2.6875 -9.484375 L 2.6875 -4.828125 Z M 5.3125 -4.828125 "/></g></g></g><g fill="#ffffff" fill-opacity="1"><g transform="translate(136.704992, 88.312354)"><g><path d="M 5.125 0.15625 C 4.28125 0.15625 3.503906 0.015625 2.796875 -0.265625 C 2.097656 -0.546875 1.429688 -0.972656 0.796875 -1.546875 L 1.546875 -2.421875 C 2.097656 -1.910156 2.65625 -1.53125 3.21875 -1.28125 C 3.78125 -1.039062 4.429688 -0.921875 5.171875 -0.921875 C 5.890625 -0.921875 6.460938 -1.085938 6.890625 -1.421875 C 7.316406 -1.765625 7.53125 -2.195312 7.53125 -2.71875 L 7.53125 -2.75 C 7.53125 -2.988281 7.488281 -3.207031 7.40625 -3.40625 C 7.332031 -3.601562 7.191406 -3.78125 6.984375 -3.9375 C 6.785156 -4.101562 6.503906 -4.25 6.140625 -4.375 C 5.785156 -4.507812 5.332031 -4.640625 4.78125 -4.765625 C 4.175781 -4.898438 3.648438 -5.050781 3.203125 -5.21875 C 2.753906 -5.382812 2.382812 -5.585938 2.09375 -5.828125 C 1.800781 -6.078125 1.582031 -6.363281 1.4375 -6.6875 C 1.289062 -7.007812 1.21875 -7.382812 1.21875 -7.8125 L 1.21875 -7.84375 C 1.21875 -8.257812 1.300781 -8.644531 1.46875 -9 C 1.644531 -9.351562 1.890625 -9.65625 2.203125 -9.90625 C 2.515625 -10.164062 2.882812 -10.367188 3.3125 -10.515625 C 3.738281 -10.660156 4.203125 -10.734375 4.703125 -10.734375 C 5.484375 -10.734375 6.160156 -10.625 6.734375 -10.40625 C 7.316406 -10.195312 7.878906 -9.875 8.421875 -9.4375 L 7.734375 -8.515625 C 7.234375 -8.921875 6.734375 -9.210938 6.234375 -9.390625 C 5.734375 -9.578125 5.210938 -9.671875 4.671875 -9.671875 C 3.972656 -9.671875 3.421875 -9.503906 3.015625 -9.171875 C 2.617188 -8.847656 2.421875 -8.441406 2.421875 -7.953125 L 2.421875 -7.921875 C 2.421875 -7.671875 2.457031 -7.445312 2.53125 -7.25 C 2.613281 -7.050781 2.757812 -6.867188 2.96875 -6.703125 C 3.1875 -6.535156 3.484375 -6.382812 3.859375 -6.25 C 4.234375 -6.113281 4.710938 -5.988281 5.296875 -5.875 C 6.472656 -5.601562 7.34375 -5.234375 7.90625 -4.765625 C 8.46875 -4.304688 8.75 -3.675781 8.75 -2.875 L 8.75 -2.84375 C 8.75 -2.382812 8.65625 -1.972656 8.46875 -1.609375 C 8.289062 -1.242188 8.039062 -0.925781 7.71875 -0.65625 C 7.40625 -0.394531 7.023438 -0.191406 6.578125 -0.046875 C 6.128906 0.0859375 5.644531 0.15625 5.125 0.15625 Z M 5.125 0.15625 "/></g></g></g></svg>