<svg xmlns="http://www.w3.org/2000/svg" xmlns:xlink="http://www.w3.org/1999/xlink" width="200" zoomAndPan="magnify" viewBox="0 0 224.87999 112.499997" height="90" preserveAspectRatio="xMidYMid meet" version="1.0"><defs><g/></defs><g fill="#ffffff" fill-opacity="1"><g transform="translate(21.453536, 54.25043)"><g><path d="M 3.304688 0 L 9.210938 0 L 9.210938 -11.566406 L 17.058594 0 L 24.371094 0 L 13.960938 -14.953125 L 23.542969 -29.535156 L 16.648438 -29.535156 L 9.210938 -17.761719 L 9.210938 -29.535156 L 3.304688 -29.535156 Z M 3.304688 0 "/></g></g></g><g fill="#ffffff" fill-opacity="1"><g transform="translate(44.333567, 54.25043)"><g><path d="M 1.941406 -1.898438 C 5.949219 0.164062 9.625 0.371094 11.277344 0.246094 C 16.8125 -0.0429688 20.199219 -3.800781 20.199219 -8.714844 C 20.199219 -13.425781 16.234375 -16.066406 11.648438 -17.761719 C 9.953125 -18.339844 8.507812 -19.082031 8.34375 -20.734375 C 8.21875 -22.386719 9.171875 -23.917969 11.277344 -24.039062 C 12.183594 -24.082031 14.042969 -24.121094 17.308594 -22.800781 L 18.050781 -28.5 C 14.25 -29.824219 12.226562 -29.824219 10.699219 -29.742188 C 5.78125 -29.492188 2.355469 -25.691406 2.355469 -20.734375 C 2.355469 -15.777344 6.484375 -13.425781 11.113281 -11.730469 C 12.765625 -11.152344 14.042969 -10.410156 14.167969 -8.714844 C 14.332031 -7.105469 12.847656 -5.867188 11.113281 -5.742188 C 9.75 -5.617188 6.070312 -5.699219 2.683594 -8.097656 Z M 1.941406 -1.898438 "/></g></g></g><g fill="#ffffff" fill-opacity="1"><g transform="translate(64.116037, 54.25043)"><g/></g></g><g fill="#ffffff" fill-opacity="1"><g transform="translate(73.779833, 54.25043)"><g><path d="M 3.304688 -29.535156 L 3.304688 0 L 18.585938 0 L 18.585938 -5.90625 L 9.210938 -5.90625 L 9.210938 -29.535156 Z M 3.304688 -29.535156 "/></g></g></g><g fill="#ffffff" fill-opacity="1"><g transform="translate(92.075481, 54.25043)"><g><path d="M 0.660156 0 L 7.351562 0 L 8.507812 -3.179688 L 18.296875 -3.179688 L 19.496094 0 L 26.148438 0 L 13.714844 -30.609375 L 13.09375 -30.609375 Z M 10.65625 -8.714844 L 13.425781 -16.398438 L 16.109375 -8.714844 Z M 10.65625 -8.714844 "/></g></g></g><g fill="#ffffff" fill-opacity="1"><g transform="translate(116.97924, 54.25043)"><g><path d="M 12.351562 0.621094 L 13.382812 0.621094 L 18.753906 -12.597656 L 24.164062 0.496094 L 25.238281 0.496094 L 37.300781 -29.535156 L 30.648438 -29.535156 L 24.703125 -14.457031 L 18.917969 -29.246094 L 18.628906 -29.246094 L 12.847656 -14.457031 L 6.898438 -29.535156 L 0.246094 -29.535156 Z M 12.351562 0.621094 "/></g></g></g><g fill="#ffffff" fill-opacity="1"><g transform="translate(152.507786, 54.25043)"><g/></g></g><g fill="#ffffff" fill-opacity="1"><g transform="translate(21.453536, 88.312354)"><g><path d="M 6.40625 0.1875 C 5.570312 0.1875 4.820312 0.046875 4.15625 -0.234375 C 3.5 -0.523438 2.9375 -0.914062 2.46875 -1.40625 C 2 -1.894531 1.640625 -2.46875 1.390625 -3.125 C 1.148438 -3.789062 1.03125 -4.503906 1.03125 -5.265625 L 1.03125 -5.296875 C 1.03125 -6.015625 1.15625 -6.703125 1.40625 -7.359375 C 1.664062 -8.023438 2.023438 -8.609375 2.484375 -9.109375 C 2.953125 -9.617188 3.507812 -10.019531 4.15625 -10.3125 C 4.8125 -10.613281 5.539062 -10.765625 6.34375 -10.765625 C 6.78125 -10.765625 7.179688 -10.734375 7.546875 -10.671875 C 7.921875 -10.617188 8.265625 -10.53125 8.578125 -10.40625 C 8.898438 -10.28125 9.195312 -10.128906 9.46875 -9.953125 C 9.75 -9.773438 10.019531 -9.578125 10.28125 -9.359375 L 9.515625 -8.453125 C 9.316406 -8.640625 9.101562 -8.804688 8.875 -8.953125 C 8.65625 -9.097656 8.414062 -9.222656 8.15625 -9.328125 C 7.90625 -9.429688 7.625 -9.515625 7.3125 -9.578125 C 7.007812 -9.640625 6.671875 -9.671875 6.296875 -9.671875 C 5.710938 -9.671875 5.171875 -9.550781 4.671875 -9.3125 C 4.179688 -9.082031 3.757812 -8.769531 3.40625 -8.375 C 3.050781 -7.988281 2.769531 -7.53125 2.5625 -7 C 2.363281 -6.46875 2.265625 -5.910156 2.265625 -5.328125 L 2.265625 -5.296875 C 2.265625 -4.660156 2.363281 -4.070312 2.5625 -3.53125 C 2.757812 -3 3.039062 -2.535156 3.40625 -2.140625 C 3.769531 -1.753906 4.207031 -1.445312 4.71875 -1.21875 C 5.226562 -1 5.804688 -0.890625 6.453125 -0.890625 C 7.054688 -0.890625 7.625 -0.992188 8.15625 -1.203125 C 8.695312 -1.410156 9.148438 -1.660156 9.515625 -1.953125 L 9.515625 -4.578125 L 6.296875 -4.578125 L 6.296875 -5.65625 L 10.65625 -5.65625 L 10.65625 -1.4375 C 10.164062 -0.988281 9.5625 -0.601562 8.84375 -0.28125 C 8.125 0.03125 7.3125 0.1875 6.40625 0.1875 Z M 6.40625 0.1875 "/></g></g></g><g fill="#ffffff" fill-opacity="1"><g transform="translate(34.063952, 88.312354)"><g><path d="M 1.5 -10.59375 L 6.046875 -10.59375 C 6.703125 -10.59375 7.285156 -10.5 7.796875 -10.3125 C 8.304688 -10.125 8.726562 -9.863281 9.0625 -9.53125 C 9.320312 -9.269531 9.519531 -8.960938 9.65625 -8.609375 C 9.800781 -8.253906 9.875 -7.863281 9.875 -7.4375 L 9.875 -7.40625 C 9.875 -6.96875 9.800781 -6.570312 9.65625 -6.21875 C 9.519531 -5.875 9.320312 -5.570312 9.0625 -5.3125 C 8.8125 -5.0625 8.507812 -4.851562 8.15625 -4.6875 C 7.800781 -4.519531 7.414062 -4.398438 7 -4.328125 L 10.25 0 L 8.78125 0 L 5.71875 -4.109375 L 2.6875 -4.109375 L 2.6875 0 L 1.5 0 Z M 5.9375 -5.1875 C 6.332031 -5.1875 6.695312 -5.234375 7.03125 -5.328125 C 7.363281 -5.429688 7.648438 -5.578125 7.890625 -5.765625 C 8.140625 -5.953125 8.332031 -6.179688 8.46875 -6.453125 C 8.601562 -6.722656 8.671875 -7.023438 8.671875 -7.359375 L 8.671875 -7.390625 C 8.671875 -8.046875 8.429688 -8.554688 7.953125 -8.921875 C 7.484375 -9.296875 6.816406 -9.484375 5.953125 -9.484375 L 2.6875 -9.484375 L 2.6875 -5.1875 Z M 5.9375 -5.1875 "/></g></g></g><g fill="#ffffff" fill-opacity="1"><g transform="translate(45.752023, 88.312354)"><g><path d="M 6.40625 0.1875 C 5.601562 0.1875 4.867188 0.0390625 4.203125 -0.25 C 3.546875 -0.550781 2.976562 -0.945312 2.5 -1.4375 C 2.03125 -1.9375 1.664062 -2.515625 1.40625 -3.171875 C 1.15625 -3.835938 1.03125 -4.535156 1.03125 -5.265625 L 1.03125 -5.296875 C 1.03125 -6.015625 1.160156 -6.707031 1.421875 -7.375 C 1.679688 -8.039062 2.046875 -8.625 2.515625 -9.125 C 2.992188 -9.625 3.566406 -10.019531 4.234375 -10.3125 C 4.898438 -10.613281 5.632812 -10.765625 6.4375 -10.765625 C 7.25 -10.765625 7.984375 -10.617188 8.640625 -10.328125 C 9.304688 -10.035156 9.875 -9.640625 10.34375 -9.140625 C 10.820312 -8.640625 11.1875 -8.054688 11.4375 -7.390625 C 11.695312 -6.734375 11.828125 -6.046875 11.828125 -5.328125 L 11.828125 -5.296875 C 11.828125 -4.566406 11.695312 -3.867188 11.4375 -3.203125 C 11.175781 -2.535156 10.804688 -1.953125 10.328125 -1.453125 C 9.859375 -0.953125 9.289062 -0.550781 8.625 -0.25 C 7.957031 0.0390625 7.21875 0.1875 6.40625 0.1875 Z M 6.4375 -0.921875 C 7.039062 -0.921875 7.597656 -1.035156 8.109375 -1.265625 C 8.617188 -1.492188 9.054688 -1.800781 9.421875 -2.1875 C 9.785156 -2.582031 10.070312 -3.039062 10.28125 -3.5625 C 10.488281 -4.09375 10.59375 -4.660156 10.59375 -5.265625 L 10.59375 -5.296875 C 10.59375 -5.898438 10.488281 -6.46875 10.28125 -7 C 10.070312 -7.53125 9.78125 -7.988281 9.40625 -8.375 C 9.03125 -8.769531 8.585938 -9.082031 8.078125 -9.3125 C 7.578125 -9.550781 7.019531 -9.671875 6.40625 -9.671875 C 5.800781 -9.671875 5.242188 -9.554688 4.734375 -9.328125 C 4.234375 -9.097656 3.800781 -8.785156 3.4375 -8.390625 C 3.070312 -7.992188 2.785156 -7.535156 2.578125 -7.015625 C 2.367188 -6.492188 2.265625 -5.929688 2.265625 -5.328125 L 2.265625 -5.296875 C 2.265625 -4.691406 2.367188 -4.125 2.578125 -3.59375 C 2.785156 -3.0625 3.078125 -2.597656 3.453125 -2.203125 C 3.828125 -1.816406 4.265625 -1.503906 4.765625 -1.265625 C 5.273438 -1.035156 5.832031 -0.921875 6.4375 -0.921875 Z M 6.4375 -0.921875 "/></g></g></g><g fill="#ffffff" fill-opacity="1"><g transform="translate(59.360381, 88.312354)"><g><path d="M 5.734375 0.171875 C 5.078125 0.171875 4.476562 0.0703125 3.9375 -0.125 C 3.394531 -0.320312 2.929688 -0.613281 2.546875 -1 C 2.160156 -1.394531 1.859375 -1.878906 1.640625 -2.453125 C 1.429688 -3.023438 1.328125 -3.6875 1.328125 -4.4375 L 1.328125 -10.59375 L 2.53125 -10.59375 L 2.53125 -4.5 C 2.53125 -3.351562 2.8125 -2.472656 3.375 -1.859375 C 3.945312 -1.242188 4.742188 -0.9375 5.765625 -0.9375 C 6.742188 -0.9375 7.519531 -1.226562 8.09375 -1.8125 C 8.664062 -2.394531 8.953125 -3.269531 8.953125 -4.4375 L 8.953125 -10.59375 L 10.15625 -10.59375 L 10.15625 -4.515625 C 10.15625 -3.742188 10.046875 -3.066406 9.828125 -2.484375 C 9.617188 -1.898438 9.316406 -1.410156 8.921875 -1.015625 C 8.535156 -0.617188 8.070312 -0.320312 7.53125 -0.125 C 7 0.0703125 6.398438 0.171875 5.734375 0.171875 Z M 5.734375 0.171875 "/></g></g></g><g fill="#ffffff" fill-opacity="1"><g transform="translate(71.592786, 88.312354)"><g><path d="M 1.5 -10.59375 L 5.453125 -10.59375 C 6.054688 -10.59375 6.597656 -10.515625 7.078125 -10.359375 C 7.566406 -10.203125 7.984375 -9.976562 8.328125 -9.6875 C 8.679688 -9.394531 8.953125 -9.039062 9.140625 -8.625 C 9.328125 -8.21875 9.421875 -7.753906 9.421875 -7.234375 L 9.421875 -7.203125 C 9.421875 -6.628906 9.304688 -6.125 9.078125 -5.6875 C 8.859375 -5.257812 8.5625 -4.898438 8.1875 -4.609375 C 7.8125 -4.316406 7.367188 -4.097656 6.859375 -3.953125 C 6.359375 -3.804688 5.828125 -3.734375 5.265625 -3.734375 L 2.6875 -3.734375 L 2.6875 0 L 1.5 0 Z M 5.3125 -4.828125 C 5.738281 -4.828125 6.128906 -4.878906 6.484375 -4.984375 C 6.847656 -5.097656 7.15625 -5.257812 7.40625 -5.46875 C 7.664062 -5.675781 7.863281 -5.921875 8 -6.203125 C 8.144531 -6.484375 8.21875 -6.800781 8.21875 -7.15625 L 8.21875 -7.1875 C 8.21875 -7.9375 7.957031 -8.503906 7.4375 -8.890625 C 6.914062 -9.285156 6.226562 -9.484375 5.375 -9.484375 L 2.6875 -9.484375 L 2.6875 -4.828125 Z M 5.3125 -4.828125 "/></g></g></g><g fill="#ffffff" fill-opacity="1"><g transform="translate(82.449237, 88.312354)"><g><path d="M 5.125 0.15625 C 4.28125 0.15625 3.503906 0.015625 2.796875 -0.265625 C 2.097656 -0.546875 1.429688 -0.972656 0.796875 -1.546875 L 1.546875 -2.421875 C 2.097656 -1.910156 2.65625 -1.53125 3.21875 -1.28125 C 3.78125 -1.039062 4.429688 -0.921875 5.171875 -0.921875 C 5.890625 -0.921875 6.460938 -1.085938 6.890625 -1.421875 C 7.316406 -1.765625 7.53125 -2.195312 7.53125 -2.71875 L 7.53125 -2.75 C 7.53125 -2.988281 7.488281 -3.207031 7.40625 -3.40625 C 7.332031 -3.601562 7.191406 -3.78125 6.984375 -3.9375 C 6.785156 -4.101562 6.503906 -4.25 6.140625 -4.375 C 5.785156 -4.507812 5.332031 -4.640625 4.78125 -4.765625 C 4.175781 -4.898438 3.648438 -5.050781 3.203125 -5.21875 C 2.753906 -5.382812 2.382812 -5.585938 2.09375 -5.828125 C 1.800781 -6.078125 1.582031 -6.363281 1.4375 -6.6875 C 1.289062 -7.007812 1.21875 -7.382812 1.21875 -7.8125 L 1.21875 -7.84375 C 1.21875 -8.257812 1.300781 -8.644531 1.46875 -9 C 1.644531 -9.351562 1.890625 -9.65625 2.203125 -9.90625 C 2.515625 -10.164062 2.882812 -10.367188 3.3125 -10.515625 C 3.738281 -10.660156 4.203125 -10.734375 4.703125 -10.734375 C 5.484375 -10.734375 6.160156 -10.625 6.734375 -10.40625 C 7.316406 -10.195312 7.878906 -9.875 8.421875 -9.4375 L 7.734375 -8.515625 C 7.234375 -8.921875 6.734375 -9.210938 6.234375 -9.390625 C 5.734375 -9.578125 5.210938 -9.671875 4.671875 -9.671875 C 3.972656 -9.671875 3.421875 -9.503906 3.015625 -9.171875 C 2.617188 -8.847656 2.421875 -8.441406 2.421875 -7.953125 L 2.421875 -7.921875 C 2.421875 -7.671875 2.457031 -7.445312 2.53125 -7.25 C 2.613281 -7.050781 2.757812 -6.867188 2.96875 -6.703125 C 3.1875 -6.535156 3.484375 -6.382812 3.859375 -6.25 C 4.234375 -6.113281 4.710938 -5.988281 5.296875 -5.875 C 6.472656 -5.601562 7.34375 -5.234375 7.90625 -4.765625 C 8.46875 -4.304688 8.75 -3.675781 8.75 -2.875 L 8.75 -2.84375 C 8.75 -2.382812 8.65625 -1.972656 8.46875 -1.609375 C 8.289062 -1.242188 8.039062 -0.925781 7.71875 -0.65625 C 7.40625 -0.394531 7.023438 -0.191406 6.578125 -0.046875 C 6.128906 0.0859375 5.644531 0.15625 5.125 0.15625 Z M 5.125 0.15625 "/></g></g></g></svg>