<svg xmlns="http://www.w3.org/2000/svg" xmlns:xlink="http://www.w3.org/1999/xlink" width="300" zoomAndPan="magnify" viewBox="0 0 224.87999 225" height="150" preserveAspectRatio="xMidYMid meet" version="1.0"><defs><g/></defs><g fill="#ffffff" fill-opacity="1"><g transform="translate(22.487998, 112.402975)"><g><path d="M 33.625 0 L 22.890625 0 L 10.28125 -14.515625 L 10.28125 0 L 2.484375 0 L 2.484375 -34.21875 L 10.28125 -34.21875 L 10.28125 -20.234375 L 22.015625 -34.21875 L 31.46875 -34.21875 L 17.703125 -18 Z M 33.625 0 "/></g></g></g><g fill="#ffffff" fill-opacity="1"><g transform="translate(53.054179, 112.402975)"><g/></g></g><g fill="#ffffff" fill-opacity="1"><g transform="translate(62.302836, 112.402975)"><g><path d="M 15.09375 -34.828125 C 16.945312 -34.828125 18.757812 -34.554688 20.53125 -34.015625 C 22.300781 -33.484375 23.613281 -32.953125 24.46875 -32.421875 L 25.703125 -31.59375 L 22.5625 -25.375 C 22.3125 -25.539062 21.960938 -25.753906 21.515625 -26.015625 C 21.078125 -26.285156 20.25 -26.640625 19.03125 -27.078125 C 17.8125 -27.523438 16.679688 -27.75 15.640625 -27.75 C 14.335938 -27.75 13.332031 -27.46875 12.625 -26.90625 C 11.914062 -26.351562 11.5625 -25.609375 11.5625 -24.671875 C 11.5625 -24.203125 11.726562 -23.765625 12.0625 -23.359375 C 12.394531 -22.960938 12.960938 -22.535156 13.765625 -22.078125 C 14.566406 -21.617188 15.269531 -21.25 15.875 -20.96875 C 16.488281 -20.695312 17.429688 -20.285156 18.703125 -19.734375 C 20.910156 -18.796875 22.796875 -17.519531 24.359375 -15.90625 C 25.921875 -14.289062 26.703125 -12.457031 26.703125 -10.40625 C 26.703125 -8.445312 26.347656 -6.734375 25.640625 -5.265625 C 24.941406 -3.796875 23.976562 -2.644531 22.75 -1.8125 C 21.519531 -0.988281 20.15625 -0.378906 18.65625 0.015625 C 17.164062 0.421875 15.550781 0.625 13.8125 0.625 C 12.3125 0.625 10.84375 0.46875 9.40625 0.15625 C 7.96875 -0.144531 6.765625 -0.519531 5.796875 -0.96875 C 4.835938 -1.425781 3.96875 -1.875 3.1875 -2.3125 C 2.414062 -2.757812 1.851562 -3.132812 1.5 -3.4375 L 0.953125 -3.890625 L 4.859375 -10.453125 C 5.179688 -10.171875 5.632812 -9.816406 6.21875 -9.390625 C 6.800781 -8.960938 7.832031 -8.390625 9.3125 -7.671875 C 10.789062 -6.953125 12.097656 -6.59375 13.234375 -6.59375 C 16.515625 -6.59375 18.15625 -7.710938 18.15625 -9.953125 C 18.15625 -10.421875 18.035156 -10.851562 17.796875 -11.25 C 17.566406 -11.65625 17.15625 -12.054688 16.5625 -12.453125 C 15.96875 -12.859375 15.441406 -13.175781 14.984375 -13.40625 C 14.535156 -13.644531 13.789062 -14.003906 12.75 -14.484375 C 11.71875 -14.972656 10.953125 -15.34375 10.453125 -15.59375 C 8.378906 -16.613281 6.773438 -17.890625 5.640625 -19.421875 C 4.503906 -20.960938 3.9375 -22.617188 3.9375 -24.390625 C 3.9375 -27.453125 5.066406 -29.957031 7.328125 -31.90625 C 9.597656 -33.851562 12.1875 -34.828125 15.09375 -34.828125 Z M 15.09375 -34.828125 "/></g></g></g><g fill="#ffffff" fill-opacity="1"><g transform="translate(88.099534, 112.402975)"><g/></g></g><g fill="#ffffff" fill-opacity="1"><g transform="translate(97.348191, 112.402975)"><g><path d="M 10.28125 -34.21875 L 10.28125 -6.84375 L 22.0625 -6.84375 L 22.0625 0 L 2.484375 0 L 2.484375 -34.21875 Z M 10.28125 -34.21875 "/></g></g></g><g fill="#ffffff" fill-opacity="1"><g transform="translate(118.707194, 112.402975)"><g><path d="M 3.9375 -2.625 C 1.945312 -4.800781 0.953125 -7.460938 0.953125 -10.609375 C 0.953125 -13.765625 1.945312 -16.429688 3.9375 -18.609375 C 5.925781 -20.796875 8.457031 -21.890625 11.53125 -21.890625 C 14.351562 -21.890625 16.675781 -21.003906 18.5 -19.234375 L 18.5 -21.28125 L 25.828125 -21.28125 L 25.828125 0 L 18.578125 0 L 18.578125 -2.40625 L 18.5 -2.40625 C 16.675781 -0.382812 14.351562 0.625 11.53125 0.625 C 8.457031 0.625 5.925781 -0.457031 3.9375 -2.625 Z M 10.171875 -14.21875 C 9.222656 -13.28125 8.75 -12.078125 8.75 -10.609375 C 8.75 -9.148438 9.203125 -7.957031 10.109375 -7.03125 C 11.023438 -6.101562 12.226562 -5.640625 13.71875 -5.640625 C 15.15625 -5.640625 16.335938 -6.109375 17.265625 -7.046875 C 18.191406 -7.984375 18.65625 -9.171875 18.65625 -10.609375 C 18.65625 -12.078125 18.175781 -13.28125 17.21875 -14.21875 C 16.269531 -15.164062 15.101562 -15.640625 13.71875 -15.640625 C 12.3125 -15.640625 11.128906 -15.164062 10.171875 -14.21875 Z M 10.171875 -14.21875 "/></g></g></g><g fill="#ffffff" fill-opacity="1"><g transform="translate(144.960096, 112.402975)"><g><path d="M 15.546875 0 L 10.578125 0 L -0.828125 -21.28125 L 7.625 -21.28125 L 12.8125 -9.78125 L 17.921875 -21.28125 L 22.96875 -21.28125 L 28.078125 -9.78125 L 33.265625 -21.28125 L 41.71875 -21.28125 L 30.3125 0 L 25.34375 0 L 20.4375 -10.984375 Z M 15.546875 0 "/></g></g></g><g fill="#ffffff" fill-opacity="1"><g transform="translate(183.782018, 112.402975)"><g/></g></g><g fill="#ffffff" fill-opacity="1"><g transform="translate(77.166647, 145.14798)"><g><path d="M 10.46875 0 L 9.671875 0 C 9.535156 0 9.46875 -0.0625 9.46875 -0.1875 L 9.484375 -1.234375 C 8.585938 -0.335938 7.398438 0.109375 5.921875 0.109375 C 4.441406 0.109375 3.207031 -0.40625 2.21875 -1.4375 C 1.226562 -2.46875 0.734375 -3.820312 0.734375 -5.5 C 0.734375 -6.625 0.984375 -7.609375 1.484375 -8.453125 C 1.984375 -9.304688 2.617188 -9.941406 3.390625 -10.359375 C 4.160156 -10.773438 5 -10.984375 5.90625 -10.984375 C 7.445312 -10.984375 8.554688 -10.503906 9.234375 -9.546875 L 9.21875 -10.71875 C 9.195312 -10.832031 9.257812 -10.890625 9.40625 -10.890625 L 10.25 -10.890625 C 10.382812 -10.890625 10.453125 -10.832031 10.453125 -10.71875 L 10.453125 -7.578125 C 10.453125 -7.460938 10.382812 -7.40625 10.25 -7.40625 L 9.296875 -7.40625 C 9.179688 -7.40625 9.125 -7.460938 9.125 -7.578125 L 9.125 -7.765625 C 9.125 -8.210938 8.816406 -8.648438 8.203125 -9.078125 C 7.585938 -9.515625 6.804688 -9.734375 5.859375 -9.734375 C 4.910156 -9.734375 4.050781 -9.34375 3.28125 -8.5625 C 2.519531 -7.78125 2.140625 -6.734375 2.140625 -5.421875 C 2.140625 -4.109375 2.523438 -3.070312 3.296875 -2.3125 C 4.066406 -1.550781 4.925781 -1.171875 5.875 -1.171875 C 6.820312 -1.171875 7.570312 -1.320312 8.125 -1.625 C 8.675781 -1.925781 9.085938 -2.285156 9.359375 -2.703125 L 9.359375 -3.890625 L 6.53125 -3.890625 C 6.414062 -3.890625 6.359375 -3.953125 6.359375 -4.078125 L 6.359375 -4.78125 C 6.359375 -4.90625 6.414062 -4.96875 6.53125 -4.96875 L 10.46875 -4.96875 C 10.59375 -4.96875 10.65625 -4.90625 10.65625 -4.78125 L 10.65625 -0.1875 C 10.65625 -0.0625 10.59375 0 10.46875 0 Z M 10.46875 0 "/></g></g></g><g fill="#ffffff" fill-opacity="1"><g transform="translate(89.310249, 145.14798)"><g><path d="M 9.9375 0 L 8.625 0 C 8.257812 0 7.953125 -0.242188 7.703125 -0.734375 L 6.28125 -3.625 C 6.15625 -3.875 6.023438 -4.0625 5.890625 -4.1875 C 5.753906 -4.3125 5.566406 -4.378906 5.328125 -4.390625 L 3.40625 -4.390625 L 3.40625 -1.140625 L 4.765625 -1.140625 C 4.890625 -1.140625 4.953125 -1.078125 4.953125 -0.953125 L 4.953125 -0.1875 C 4.953125 -0.0625 4.890625 0 4.765625 0 L 0.921875 0 C 0.796875 0 0.734375 -0.0625 0.734375 -0.1875 L 0.734375 -0.953125 C 0.734375 -1.078125 0.796875 -1.140625 0.921875 -1.140625 L 2.078125 -1.140625 L 2.078125 -9.75 L 0.921875 -9.75 C 0.796875 -9.75 0.734375 -9.8125 0.734375 -9.9375 L 0.734375 -10.71875 C 0.734375 -10.832031 0.796875 -10.890625 0.921875 -10.890625 L 5.59375 -10.890625 C 6.675781 -10.890625 7.554688 -10.601562 8.234375 -10.03125 C 8.910156 -9.457031 9.25 -8.648438 9.25 -7.609375 C 9.25 -6.023438 8.507812 -5.035156 7.03125 -4.640625 C 7.21875 -4.492188 7.453125 -4.15625 7.734375 -3.625 L 9.015625 -1.140625 L 9.9375 -1.140625 C 10.0625 -1.140625 10.125 -1.078125 10.125 -0.953125 L 10.125 -0.1875 C 10.125 -0.0625 10.0625 0 9.9375 0 Z M 3.40625 -5.46875 L 5.34375 -5.46875 C 7.0625 -5.46875 7.921875 -6.171875 7.921875 -7.578125 C 7.921875 -9.023438 7.0625 -9.75 5.34375 -9.75 L 3.40625 -9.75 Z M 3.40625 -5.46875 "/></g></g></g><g fill="#ffffff" fill-opacity="1"><g transform="translate(100.922569, 145.14798)"><g><path d="M 11.28125 -5.5 C 11.28125 -3.832031 10.78125 -2.476562 9.78125 -1.4375 C 8.789062 -0.40625 7.539062 0.109375 6.03125 0.109375 C 4.519531 0.109375 3.257812 -0.410156 2.25 -1.453125 C 1.238281 -2.503906 0.734375 -3.859375 0.734375 -5.515625 C 0.734375 -7.171875 1.253906 -8.492188 2.296875 -9.484375 C 3.335938 -10.484375 4.578125 -10.984375 6.015625 -10.984375 C 7.460938 -10.984375 8.703125 -10.484375 9.734375 -9.484375 C 10.765625 -8.492188 11.28125 -7.164062 11.28125 -5.5 Z M 3.3125 -2.28125 C 4.082031 -1.507812 4.984375 -1.125 6.015625 -1.125 C 7.054688 -1.125 7.957031 -1.507812 8.71875 -2.28125 C 9.488281 -3.050781 9.875 -4.113281 9.875 -5.46875 C 9.875 -6.820312 9.484375 -7.878906 8.703125 -8.640625 C 7.921875 -9.398438 7.023438 -9.78125 6.015625 -9.78125 C 5.015625 -9.78125 4.117188 -9.398438 3.328125 -8.640625 C 2.546875 -7.878906 2.15625 -6.820312 2.15625 -5.46875 C 2.15625 -4.113281 2.539062 -3.050781 3.3125 -2.28125 Z M 3.3125 -2.28125 "/></g></g></g><g fill="#ffffff" fill-opacity="1"><g transform="translate(113.718891, 145.14798)"><g><path d="M 8.953125 -3.9375 L 8.953125 -9.75 L 7.78125 -9.75 C 7.65625 -9.75 7.59375 -9.8125 7.59375 -9.9375 L 7.59375 -10.71875 C 7.59375 -10.832031 7.65625 -10.890625 7.78125 -10.890625 L 11.4375 -10.890625 C 11.5625 -10.890625 11.625 -10.832031 11.625 -10.71875 L 11.625 -9.9375 C 11.625 -9.8125 11.5625 -9.75 11.4375 -9.75 L 10.265625 -9.75 L 10.265625 -4.078125 C 10.265625 -2.710938 9.90625 -1.671875 9.1875 -0.953125 C 8.476562 -0.242188 7.472656 0.109375 6.171875 0.109375 C 4.878906 0.109375 3.875 -0.242188 3.15625 -0.953125 C 2.4375 -1.671875 2.078125 -2.710938 2.078125 -4.078125 L 2.078125 -9.75 L 0.921875 -9.75 C 0.796875 -9.75 0.734375 -9.8125 0.734375 -9.9375 L 0.734375 -10.71875 C 0.734375 -10.832031 0.796875 -10.890625 0.921875 -10.890625 L 4.5625 -10.890625 C 4.695312 -10.890625 4.765625 -10.832031 4.765625 -10.71875 L 4.765625 -9.9375 C 4.765625 -9.8125 4.695312 -9.75 4.5625 -9.75 L 3.40625 -9.75 L 3.40625 -4.03125 C 3.40625 -2.09375 4.332031 -1.125 6.1875 -1.125 C 7.132812 -1.125 7.832031 -1.375 8.28125 -1.875 C 8.726562 -2.375 8.953125 -3.0625 8.953125 -3.9375 Z M 8.953125 -3.9375 "/></g></g></g><g fill="#ffffff" fill-opacity="1"><g transform="translate(126.833979, 145.14798)"><g><path d="M 4.890625 0 L 0.921875 0 C 0.796875 0 0.734375 -0.0625 0.734375 -0.1875 L 0.734375 -0.953125 C 0.734375 -1.078125 0.796875 -1.140625 0.921875 -1.140625 L 2.078125 -1.140625 L 2.078125 -9.75 L 0.921875 -9.75 C 0.796875 -9.75 0.734375 -9.8125 0.734375 -9.9375 L 0.734375 -10.71875 C 0.734375 -10.832031 0.796875 -10.890625 0.921875 -10.890625 L 5.59375 -10.890625 C 6.664062 -10.890625 7.539062 -10.578125 8.21875 -9.953125 C 8.90625 -9.335938 9.25 -8.5 9.25 -7.4375 C 9.25 -6.382812 8.914062 -5.566406 8.25 -4.984375 C 7.582031 -4.398438 6.644531 -4.109375 5.4375 -4.109375 L 3.40625 -4.109375 L 3.40625 -1.140625 L 4.890625 -1.140625 C 5.003906 -1.140625 5.0625 -1.078125 5.0625 -0.953125 L 5.0625 -0.1875 C 5.0625 -0.0625 5.003906 0 4.890625 0 Z M 3.40625 -5.1875 L 5.375 -5.1875 C 7.070312 -5.1875 7.921875 -5.9375 7.921875 -7.4375 C 7.921875 -8.21875 7.679688 -8.796875 7.203125 -9.171875 C 6.722656 -9.554688 6.117188 -9.75 5.390625 -9.75 L 3.40625 -9.75 Z M 3.40625 -5.1875 "/></g></g></g><g fill="#ffffff" fill-opacity="1"><g transform="translate(137.581072, 145.14798)"><g><path d="M 1.78125 0 L 0.921875 0 C 0.796875 0 0.734375 -0.0625 0.734375 -0.1875 L 0.734375 -3.734375 C 0.734375 -3.859375 0.796875 -3.921875 0.921875 -3.921875 L 1.875 -3.921875 C 2 -3.921875 2.0625 -3.859375 2.0625 -3.734375 L 2.0625 -3.40625 C 2.0625 -3.21875 2.175781 -2.960938 2.40625 -2.640625 C 2.644531 -2.328125 2.878906 -2.066406 3.109375 -1.859375 C 3.335938 -1.660156 3.644531 -1.488281 4.03125 -1.34375 C 4.425781 -1.195312 4.851562 -1.125 5.3125 -1.125 C 6.09375 -1.125 6.703125 -1.285156 7.140625 -1.609375 C 7.578125 -1.929688 7.796875 -2.378906 7.796875 -2.953125 C 7.796875 -3.285156 7.671875 -3.570312 7.421875 -3.8125 C 7.179688 -4.050781 6.863281 -4.238281 6.46875 -4.375 C 6.070312 -4.519531 5.632812 -4.65625 5.15625 -4.78125 C 4.675781 -4.90625 4.191406 -5.046875 3.703125 -5.203125 C 3.222656 -5.359375 2.785156 -5.539062 2.390625 -5.75 C 2.003906 -5.96875 1.6875 -6.269531 1.4375 -6.65625 C 1.1875 -7.050781 1.0625 -7.515625 1.0625 -8.046875 C 1.0625 -8.890625 1.378906 -9.585938 2.015625 -10.140625 C 2.660156 -10.703125 3.523438 -10.984375 4.609375 -10.984375 C 5.972656 -10.984375 6.972656 -10.582031 7.609375 -9.78125 L 7.578125 -10.71875 C 7.578125 -10.84375 7.644531 -10.90625 7.78125 -10.90625 L 8.625 -10.90625 C 8.75 -10.90625 8.8125 -10.84375 8.8125 -10.71875 L 8.8125 -7.421875 C 8.8125 -7.296875 8.75 -7.234375 8.625 -7.234375 L 7.671875 -7.234375 C 7.554688 -7.234375 7.5 -7.296875 7.5 -7.421875 L 7.5 -7.84375 C 7.5 -8.257812 7.265625 -8.675781 6.796875 -9.09375 C 6.328125 -9.519531 5.644531 -9.734375 4.75 -9.734375 C 4.082031 -9.734375 3.539062 -9.570312 3.125 -9.25 C 2.71875 -8.9375 2.515625 -8.535156 2.515625 -8.046875 C 2.515625 -7.691406 2.640625 -7.382812 2.890625 -7.125 C 3.148438 -6.875 3.476562 -6.671875 3.875 -6.515625 C 4.28125 -6.367188 4.726562 -6.234375 5.21875 -6.109375 C 5.707031 -5.984375 6.191406 -5.84375 6.671875 -5.6875 C 7.160156 -5.539062 7.609375 -5.359375 8.015625 -5.140625 C 8.421875 -4.929688 8.75 -4.640625 9 -4.265625 C 9.25 -3.898438 9.375 -3.460938 9.375 -2.953125 C 9.375 -2.066406 9.054688 -1.332031 8.421875 -0.75 C 7.785156 -0.175781 6.832031 0.109375 5.5625 0.109375 C 4.632812 0.109375 3.867188 -0.078125 3.265625 -0.453125 C 2.660156 -0.828125 2.21875 -1.234375 1.9375 -1.671875 L 1.953125 -0.1875 C 1.953125 -0.0625 1.894531 0 1.78125 0 Z M 1.78125 0 "/></g></g></g></svg>